# xmcd
#
# Track frame offsets:
#	150
#	9770
#	19665
#	32262
#	44752
#	58407
#	68420
#	79185
#	89507
#	104662
#
# Disc length: 1550 seconds
#
# Revision: 0
# Processed by: cddbd v1.5.1PL2 Copyright (c) Steve Scherf et al.
# Submitted via: dBpowerAMP V4.0
#
DISCID=78060c0a
DTITLE=Porter Wagoner and Dolly Parton - All American Country
DYEAR=2003
DGENRE=Country
TTITLE0=If Teardrops Were Pennies
TTITLE1=Making Plans
TTITLE2=Please Don't Stop Loving Me
TTITLE3=Say Forever You'll Be Mine
TTITLE4=Daddy Was An Old Time Preacher Man
TTITLE5=Better Move It On Home
TTITLE6=Just Someone I Used To Know
TTITLE7=The Dark End Of The Street
TTITLE8=Lost Forever In Your Kiss
TTITLE9=The Last Thing On My Mind
EXTD=
EXTT0=
EXTT1=
EXTT2=
EXTT3=
EXTT4=
EXTT5=
EXTT6=
EXTT7=
EXTT8=
EXTT9=
PLAYORDER=
